<?xml version="1.0" standalone="no"?>
<!DOCTYPE svg PUBLIC "-//W3C//DTD SVG 20010904//EN"
 "http://www.w3.org/TR/2001/REC-SVG-20010904/DTD/svg10.dtd">
<svg version="1.0" xmlns="http://www.w3.org/2000/svg"
 width="1078.000000pt" height="332.000000pt" viewBox="0 0 1078.000000 332.000000"
 preserveAspectRatio="xMidYMid meet">

<g transform="translate(0.000000,332.000000) scale(0.100000,-0.100000)"
fill="#BF00FF" stroke="none">
<path d="M4322 2615 c-424 -145 -786 -274 -803 -286 -43 -30 -79 -111 -79
-177 0 -59 16 -103 62 -176 l32 -48 16 59 c21 77 50 117 114 157 95 59 100 60
133 18 47 -60 47 -59 -2 -81 -68 -30 -104 -59 -136 -109 -24 -38 -29 -57 -29
-108 0 -35 4 -74 10 -88 5 -14 128 -207 273 -430 264 -404 265 -405 271 -367
13 83 122 194 220 223 39 12 39 12 73 -27 18 -21 33 -41 33 -45 0 -3 -25 -18
-55 -33 -120 -59 -175 -135 -175 -243 0 -78 6 -91 144 -303 99 -152 145 -191
225 -191 34 0 282 81 943 307 494 170 898 310 897 313 0 3 -24 23 -52 45 -28
23 -65 60 -82 84 -26 38 -30 53 -33 126 -3 55 1 101 12 136 8 29 14 55 12 57
-2 2 -20 -17 -40 -41 -88 -107 -84 -229 11 -353 22 -29 22 -32 6 -39 -93 -35
-1654 -565 -1667 -565 -54 0 -119 67 -135 140 -17 76 18 179 81 237 21 20 502
202 1573 595 121 45 224 84 229 89 8 7 -1291 1390 -1303 1388 -3 0 -354 -119
-779 -264z"/>
<path d="M485 2093 c-52 -9 -66 -15 -96 -40 -67 -56 -69 -69 -69 -453 0 -316
2 -349 19 -386 27 -60 80 -96 146 -102 71 -6 97 2 141 40 48 43 64 83 64 163
l0 65 -65 0 -65 0 0 -51 c0 -66 -13 -89 -50 -89 -58 0 -60 10 -60 366 0 298 1
322 18 337 25 23 69 22 82 -2 5 -11 10 -33 10 -50 l0 -31 65 0 65 0 0 44 c0
25 -5 57 -11 73 -12 31 -54 79 -84 96 -25 13 -84 24 -110 20z"/>
<path d="M985 2088 c-6 -18 -145 -944 -145 -968 0 -18 7 -20 64 -20 l63 0 18
138 c9 75 20 153 24 172 l7 35 69 0 70 0 25 -170 25 -170 67 -3 68 -3 -7 33
c-4 18 -43 242 -88 498 l-81 465 -87 3 c-64 2 -89 -1 -92 -10z m144 -480 c1
-27 -1 -28 -50 -28 -50 0 -51 0 -45 28 3 15 13 81 21 147 24 185 26 186 51 25
12 -80 23 -157 23 -172z"/>
<path d="M1460 1601 l0 -501 65 0 65 0 0 106 c0 93 2 105 17 102 10 -2 29 -38
53 -103 l37 -100 71 -3 72 -3 -36 98 c-51 138 -50 131 -21 161 44 46 47 69 47
349 0 255 -1 267 -22 305 -38 67 -72 81 -219 86 l-129 5 0 -502z m221 359 c18
-10 19 -24 19 -253 0 -176 -3 -246 -12 -255 -7 -7 -31 -12 -55 -12 l-43 0 0
258 c0 142 3 262 7 265 10 11 62 8 84 -3z"/>
<path d="M2612 2079 c-26 -13 -55 -39 -70 -62 l-27 -41 0 -375 0 -376 25 -38
c36 -54 116 -92 177 -83 63 8 116 45 142 98 20 43 21 58 21 402 0 330 -1 360
-19 394 -23 46 -46 67 -94 87 -51 21 -104 19 -155 -6z m116 -125 c22 -15 22
-15 22 -354 l0 -340 -24 -15 c-27 -18 -69 -7 -80 20 -3 9 -6 163 -6 341 0 311
1 325 20 344 24 24 38 25 68 4z"/>
<path d="M7052 1603 l3 -498 160 0 160 0 3 62 3 62 -98 3 -98 3 -3 433 -2 432
-65 0 -65 0 2 -497z"/>
<path d="M7520 1605 l0 -495 65 0 65 0 0 495 0 495 -65 0 -65 0 0 -495z"/>
<path d="M8950 2087 c0 -7 -32 -222 -70 -477 -39 -256 -71 -474 -73 -485 -2
-18 4 -20 63 -20 l65 0 22 160 c13 88 25 166 28 173 3 8 26 12 69 12 53 0 66
-3 69 -17 3 -10 15 -89 28 -175 l23 -158 63 0 c55 0 63 2 63 19 0 18 -153 907
-165 959 -5 21 -10 22 -95 22 -67 0 -90 -3 -90 -13z m150 -489 c0 -15 -9 -18
-50 -18 l-51 0 5 33 c3 17 13 86 22 152 8 66 18 127 21 135 5 13 51 -254 53
-302z"/>
<path d="M1980 1594 l0 -496 118 3 c107 4 121 6 164 32 31 18 57 44 75 75 l28
47 3 310 c4 346 -1 390 -50 449 -50 61 -94 76 -225 76 l-113 0 0 -496z m227
342 l28 -24 0 -316 c0 -310 0 -316 -22 -337 -13 -14 -35 -22 -60 -23 l-38 -1
-3 363 -2 362 34 0 c22 0 45 -9 63 -24z"/>
<path d="M7790 1595 l0 -497 123 4 c146 4 185 19 223 84 25 42 25 44 22 248
-3 191 -4 206 -25 234 -14 19 -18 33 -12 43 5 8 9 65 9 128 0 131 -17 183 -73
223 -28 20 -47 23 -149 26 l-118 4 0 -497z m200 345 c6 -11 10 -58 8 -108 l-3
-87 -37 -3 -38 -3 0 110 0 111 30 0 c19 0 33 -7 40 -20z m28 -342 c8 -8 12
-63 12 -180 0 -158 -1 -168 -20 -178 -12 -6 -35 -10 -53 -8 l-32 3 -3 188 -2
187 43 0 c24 0 48 -5 55 -12z"/>
<path d="M8300 1595 l0 -495 70 0 70 0 0 105 c0 83 3 105 14 105 9 0 28 -40
51 -105 l38 -105 68 0 c38 0 69 3 69 6 0 4 -18 56 -41 117 l-40 110 30 31 c47
49 53 95 49 367 -3 225 -5 247 -24 279 -11 19 -35 45 -54 57 -30 21 -45 23
-166 23 l-134 0 0 -495z m238 111 c2 -193 -1 -251 -10 -258 -7 -4 -30 -8 -50
-8 l-38 0 0 261 0 260 48 -3 47 -3 3 -249z"/>
<path d="M9430 1595 l0 -495 65 0 65 0 0 106 c0 92 2 105 16 102 11 -2 29 -38
53 -105 l36 -103 72 0 73 0 -11 28 c-6 15 -26 68 -45 119 l-33 91 23 16 c51
33 57 77 54 368 -3 252 -4 268 -24 295 -47 64 -74 73 -215 73 l-129 0 0 -495z
m228 353 c9 -9 12 -78 12 -248 0 -170 -3 -239 -12 -248 -7 -7 -31 -12 -55 -12
l-43 0 0 260 0 260 43 0 c24 0 48 -5 55 -12z"/>
<path d="M9910 2085 c0 -2 38 -139 85 -304 l85 -301 0 -190 0 -190 65 0 65 0
0 196 0 196 90 289 c50 158 90 293 90 299 0 6 -28 10 -70 10 -46 0 -70 -4 -70
-11 0 -32 -103 -331 -109 -318 -4 8 -27 85 -51 172 l-43 157 -69 0 c-37 0 -68
-2 -68 -5z"/>
</g>
</svg>
